<svg xmlns="http://www.w3.org/2000/svg" xmlns:xlink="http://www.w3.org/1999/xlink" aria-hidden="true" role="img" width="115" height="100" viewBox="0 0 115 100">
	<g transform="matrix(1 0 0 1 167.86 56.66)"  style="fill: #ff8800">
		<g transform="matrix(1 0 0 1 -133.17 -10.41)"  >
			<path transform=" translate(-141.83, -306.24)" d="M 122.42496 307.28212 c -0.07118 0 -0.07118 0 -0.07118 0 c 0 0.49826 0 0.99652 0 1.56597 c 0 1.28125 -0.14236 22.4218 -0.14236 23.34715 c 0 1.28125 0.28472 1.63715 1.42361 1.63715 c 0 0 1.77951 -0.07118 3.55902 -0.07118 c 6.05033 0 12.10066 0.07118 18.0798 0.07118 c 17.29682 0 16.22912 0.85416 16.22912 -4.27082 c 0 -1.70833 -0.07118 -3.41666 -0.14236 -5.19616 c -0.07118 -2.34895 -1.85069 -2.27777 -3.34548 -2.27777 c 0 0 -13.3819 0.3559 -20.28639 0.3559 c -1.21007 0 -1.21007 -0.14236 -1.21007 -1.42361 c 0 -10.67705 -0.21354 -9.68053 1.49479 -9.68053 c 14.52079 -0.21354 13.88016 -0.28472 13.88016 -5.55207 c 0 -6.69095 -0.14236 -6.33505 -11.10413 -6.33505 c -1.56597 0 -3.34548 0.07118 -3.34548 0.07118 c -1.0677 0 -0.92534 0.3559 -0.92534 -8.04338 c 0 -0.78298 0.28472 -1.0677 0.99652 -1.0677 c 0 0 0.3559 0 0.64062 0 c 0.21354 0 0.3559 0 0.56944 0 c 0 0 6.40623 0.21354 10.74823 0.21354 c 11.46003 0 10.81941 -0.28472 11.31767 -1.99305 c 0.21354 -0.92534 0.21354 -1.13889 0.21354 -5.48089 c 0 -3.48784 0.14236 -4.55554 -2.34895 -4.55554 c 0 0 -8.18574 0.56944 -32.38705 0.56944 c -1.42361 0 -2.70485 -0.14236 -2.70485 -0.14236 c -0.7118 0 -1.13889 0.49826 -1.13889 1.35243 c -0.14236 2.84721 -0.28472 5.62325 -0.28472 8.39928 c 0 4.48436 0.21354 13.7378 0.28472 18.50689 z" />
		</g>
		<g transform="matrix(1 0 0 1 43.34 -10.65)"  >
			<path transform=" translate(-445, -306)" d="M 300.37579 278.95234 c -3.13193 0.07118 -2.70485 -3.48784 -2.70485 48.40263 c 0 5.26734 -0.21354 6.12151 1.42361 6.12151 c 0 0 2.56249 -0.21354 5.90797 -0.21354 c 1.49479 0 5.19616 0 5.19616 0 c 1.42361 0 1.99305 -0.56944 1.99305 -1.85069 c 0 0 -0.21354 -2.70485 -0.21354 -6.54859 c 0 -2.70485 0.07118 -5.48089 0.07118 -8.18574 c 0 -5.33852 -1.13889 -3.70138 6.90449 -4.27082 c 3.70138 -0.28472 7.33157 -0.92534 10.67705 -2.49131 c 5.55207 -2.49131 9.3958 -8.684 9.3958 -14.73433 c 0 -8.82636 -7.04685 -16.6562 -19.93049 -16.6562 c 0 0 -5.40971 0.28472 -18.72043 0.42708 z M 320.02156 299.23874 c -8.89754 0 -8.11456 0.92534 -8.11456 -2.56249 c 0 -1.70833 -0.07118 -4.342 -0.07118 -4.342 c 0 -1.13889 -0.14236 -1.13889 9.25344 -1.13889 c 2.13541 0 3.77256 2.42013 3.77256 4.342 c 0 1.42361 -0.7118 3.70138 -2.98957 3.70138 c 0 0 -0.85416 0 -1.85069 0 z" />
		</g>
	</g>
</svg>